# xmcd CD database file
#
# Track frame offsets:
#	150
#	8840
#	21565
#	33170
#	42780
#	55675
#	68045
#	75155
#	82545
#	91770
#	101755
#	110635
#	124005
#	133110
#	143815
#	154155
#	165115
#	174510
#
# Disc length: 2451 seconds
#
# Revision: 0
# Processed by: cddbd v1.4PL0 Copyright (c) Steve Scherf et al.
# Submitted via: CDex 1.50Beta6
#
DISCID=ce099112
DTITLE=Duelling Banjos - Great Country Instrumentals
DYEAR=1900
DGENRE=Country
TTITLE0=Duelling Banjos
TTITLE1=Orange Blossom Special
TTITLE2=Last Date
TTITLE3=Wabash Cannonball
TTITLE4=Tennessee Waltz
TTITLE5=Faded Love
TTITLE6=Foggy Mountain Breakdown
TTITLE7=Rollin' In My Sweet Baby's Arms
TTITLE8=Daddy Sang Bass
TTITLE9=San Antonio Rose
TTITLE10=Salty Dog
TTITLE11=Rocky Top
TTITLE12=Wheels
TTITLE13=Sleepwalker
TTITLE14=Red River Rock
TTITLE15=Down Yonder
TTITLE16=Lonesome Steel Guitar Blues
TTITLE17=Dallas (Theme)
EXTD=
EXTT0=
EXTT1=
EXTT2=
EXTT3=
EXTT4=
EXTT5=
EXTT6=
EXTT7=
EXTT8=
EXTT9=
EXTT10=
EXTT11=
EXTT12=
EXTT13=
EXTT14=
EXTT15=
EXTT16=
EXTT17=
PLAYORDER=
